<mxfile host="app.diagrams.net" modified="2023-06-23T15:02:53.625Z" agent="Mozilla/5.0 (Windows NT 10.0; Win64; x64) AppleWebKit/537.36 (KHTML, like Gecko) Chrome/114.0.0.0 Safari/537.36" etag="t5fftXd4oAcnpxUsF9gY" version="21.5.0" type="google">
  <diagram name="Page-1" id="MBOf1W16964bkixa7E-1">
    <mxGraphModel grid="1" page="1" gridSize="10" guides="1" tooltips="1" connect="1" arrows="1" fold="1" pageScale="1" pageWidth="827" pageHeight="1169" math="0" shadow="0">
      <root>
        <mxCell id="0" />
        <mxCell id="1" parent="0" />
        <mxCell id="9uG0miS3h278VQhOdD3k-1" value="" style="rounded=1;whiteSpace=wrap;html=1;fillColor=#0050ef;fontColor=#ffffff;strokeColor=#001DBC;" vertex="1" parent="1">
          <mxGeometry x="300" y="170" width="250" height="140" as="geometry" />
        </mxCell>
        <mxCell id="9uG0miS3h278VQhOdD3k-2" value="" style="ellipse;whiteSpace=wrap;html=1;aspect=fixed;fillColor=#0050ef;fontColor=#ffffff;strokeColor=#001DBC;" vertex="1" parent="1">
          <mxGeometry x="378.5" y="80" width="105" height="105" as="geometry" />
        </mxCell>
        <mxCell id="9uG0miS3h278VQhOdD3k-3" value="&lt;h1&gt;&lt;font color=&quot;#ffffff&quot;&gt;&lt;font style=&quot;font-size: 18px;&quot;&gt;&lt;span style=&quot;white-space: pre;&quot;&gt;&#x9;&amp;nbsp;&lt;/span&gt;&amp;nbsp;Utilizator&lt;/font&gt;&lt;/font&gt;&lt;/h1&gt;&lt;div&gt;&lt;br&gt;&lt;/div&gt;" style="text;html=1;strokeColor=none;fillColor=none;spacing=5;spacingTop=-20;whiteSpace=wrap;overflow=hidden;rounded=0;" vertex="1" parent="1">
          <mxGeometry x="334" y="185" width="190" height="120" as="geometry" />
        </mxCell>
        <mxCell id="9uG0miS3h278VQhOdD3k-8" value="" style="endArrow=classic;html=1;rounded=0;entryX=0.478;entryY=-0.023;entryDx=0;entryDy=0;entryPerimeter=0;" edge="1" parent="1" source="9uG0miS3h278VQhOdD3k-1">
          <mxGeometry relative="1" as="geometry">
            <mxPoint x="360" y="560" as="sourcePoint" />
            <mxPoint x="424.28" y="437.47" as="targetPoint" />
          </mxGeometry>
        </mxCell>
        <mxCell id="9uG0miS3h278VQhOdD3k-9" value="Uses&lt;br&gt;" style="edgeLabel;resizable=0;html=1;align=center;verticalAlign=middle;" connectable="0" vertex="1" parent="9uG0miS3h278VQhOdD3k-8">
          <mxGeometry relative="1" as="geometry" />
        </mxCell>
        <mxCell id="9uG0miS3h278VQhOdD3k-11" value="" style="rounded=0;whiteSpace=wrap;html=1;fillColor=#1ba1e2;fontColor=#ffffff;strokeColor=#006EAF;" vertex="1" parent="1">
          <mxGeometry x="300" y="440" width="250" height="120" as="geometry" />
        </mxCell>
        <mxCell id="9uG0miS3h278VQhOdD3k-13" value="&lt;h1 style=&quot;border-color: var(--border-color); text-align: left;&quot;&gt;&lt;font color=&quot;#ffffff&quot; style=&quot;border-color: var(--border-color); font-size: 18px;&quot;&gt;&lt;span style=&quot;white-space: pre;&quot;&gt;&amp;nbsp;&amp;nbsp;&amp;nbsp;&amp;nbsp;&lt;/span&gt;Website&lt;/font&gt;&lt;/h1&gt;&lt;h1 style=&quot;border-color: var(--border-color); text-align: left;&quot;&gt;&lt;br&gt;&lt;/h1&gt;" style="text;html=1;strokeColor=none;fillColor=none;align=center;verticalAlign=middle;whiteSpace=wrap;rounded=0;" vertex="1" parent="1">
          <mxGeometry x="329" y="430" width="169" height="100" as="geometry" />
        </mxCell>
        <mxCell id="9uG0miS3h278VQhOdD3k-14" value="&lt;font color=&quot;#ffffff&quot; style=&quot;font-size: 14px;&quot;&gt;Sistem software&lt;/font&gt;" style="text;html=1;strokeColor=none;fillColor=none;align=center;verticalAlign=middle;whiteSpace=wrap;rounded=0;" vertex="1" parent="1">
          <mxGeometry x="366.5" y="465" width="117" height="30" as="geometry" />
        </mxCell>
        <mxCell id="9uG0miS3h278VQhOdD3k-15" value="&lt;font color=&quot;#ffffff&quot;&gt;Permite utilizatorului sa intre in cont si sa joace/ creeze un joc&lt;/font&gt;" style="text;html=1;strokeColor=none;fillColor=none;align=center;verticalAlign=middle;whiteSpace=wrap;rounded=0;" vertex="1" parent="1">
          <mxGeometry x="350" y="495" width="140" height="40" as="geometry" />
        </mxCell>
        <mxCell id="9uG0miS3h278VQhOdD3k-16" value="&lt;font color=&quot;#ffffff&quot; style=&quot;font-size: 14px;&quot;&gt;Persoana&lt;/font&gt;" style="text;html=1;strokeColor=none;fillColor=none;align=center;verticalAlign=middle;whiteSpace=wrap;rounded=0;" vertex="1" parent="1">
          <mxGeometry x="395" y="210" width="65" height="30" as="geometry" />
        </mxCell>
        <mxCell id="9uG0miS3h278VQhOdD3k-17" value="" style="endArrow=classic;html=1;rounded=0;entryX=0.478;entryY=-0.023;entryDx=0;entryDy=0;entryPerimeter=0;" edge="1" parent="1">
          <mxGeometry relative="1" as="geometry">
            <mxPoint x="420.5" y="560" as="sourcePoint" />
            <mxPoint x="419.78" y="677.47" as="targetPoint" />
            <Array as="points">
              <mxPoint x="419.5" y="650" />
            </Array>
          </mxGeometry>
        </mxCell>
        <mxCell id="9uG0miS3h278VQhOdD3k-18" value="Uses&lt;br&gt;" style="edgeLabel;resizable=0;html=1;align=center;verticalAlign=middle;" connectable="0" vertex="1" parent="9uG0miS3h278VQhOdD3k-17">
          <mxGeometry relative="1" as="geometry" />
        </mxCell>
        <mxCell id="9uG0miS3h278VQhOdD3k-20" value="" style="rounded=0;whiteSpace=wrap;html=1;fillColor=#647687;strokeColor=#314354;fontColor=#ffffff;" vertex="1" parent="1">
          <mxGeometry x="295" y="680" width="260" height="110" as="geometry" />
        </mxCell>
        <mxCell id="9uG0miS3h278VQhOdD3k-21" value="&lt;font color=&quot;#ffffff&quot; style=&quot;font-size: 18px;&quot;&gt;Database MySQL&lt;/font&gt;" style="text;html=1;strokeColor=none;fillColor=none;align=center;verticalAlign=middle;whiteSpace=wrap;rounded=0;" vertex="1" parent="1">
          <mxGeometry x="348" y="690" width="150" height="30" as="geometry" />
        </mxCell>
        <mxCell id="9uG0miS3h278VQhOdD3k-22" value="&lt;font color=&quot;#ffffff&quot; style=&quot;font-size: 14px;&quot;&gt;Sistem software&lt;/font&gt;" style="text;html=1;strokeColor=none;fillColor=none;align=center;verticalAlign=middle;whiteSpace=wrap;rounded=0;" vertex="1" parent="1">
          <mxGeometry x="366.5" y="710" width="106" height="30" as="geometry" />
        </mxCell>
        <mxCell id="9uG0miS3h278VQhOdD3k-23" value="&lt;font color=&quot;#ffffff&quot;&gt;&amp;nbsp;Un client care va trebui sa isi&amp;nbsp; &amp;nbsp; &amp;nbsp; &amp;nbsp; &amp;nbsp;creeze un cont personal.&lt;/font&gt;" style="text;html=1;strokeColor=none;fillColor=none;align=center;verticalAlign=middle;whiteSpace=wrap;rounded=0;" vertex="1" parent="1">
          <mxGeometry x="341" y="240" width="180" height="30" as="geometry" />
        </mxCell>
        <mxCell id="9uG0miS3h278VQhOdD3k-24" value="&lt;font color=&quot;#ffffff&quot;&gt;Stocheaza toate informatiile disponibile pe website&lt;/font&gt;" style="text;html=1;strokeColor=none;fillColor=none;align=center;verticalAlign=middle;whiteSpace=wrap;rounded=0;" vertex="1" parent="1">
          <mxGeometry x="346.38" y="740" width="165.25" height="30" as="geometry" />
        </mxCell>
      </root>
    </mxGraphModel>
  </diagram>
</mxfile>
